<svg width="200" height="96" viewBox="0 0 200 96" fill="none" xmlns="http://www.w3.org/2000/svg">
<mask id="path-1-inside-1_12_1322" fill="white">
<path d="M86.5297 72.0024H80.9094C80.7113 72.0024 80.5691 71.7774 80.5691 71.5626C80.5691 71.4863 83.5598 61.7751 83.5598 61.7751C83.6664 61.412 83.6766 61.4014 83.7172 61.4014H83.7223C83.7676 61.4014 83.773 61.412 83.8793 61.7751C83.8793 61.7751 86.8699 71.4863 86.8699 71.5626C86.8699 71.7774 86.7172 72.0024 86.5297 72.0024ZM94.1102 49.7832C94.0822 49.6873 94.026 49.6021 93.9489 49.5391C93.8718 49.476 93.7775 49.4381 93.6785 49.4303H73.0395C72.9412 49.4382 72.8476 49.4756 72.7707 49.5376C72.6937 49.5995 72.637 49.6833 72.6078 49.7781C72.6078 49.7781 61.1992 87.7119 61.1992 87.7839C61.1992 87.9727 61.3465 88.1262 61.5395 88.1262H75.182C75.236 88.1035 75.2837 88.0679 75.3209 88.0225C75.358 87.977 75.3836 87.923 75.3953 87.8653L76.9844 82.7519C77.0088 82.6885 77.0512 82.6339 77.1063 82.5947C77.1614 82.5555 77.2267 82.5335 77.2941 82.5315L89.8809 82.5217C90.0176 82.5319 90.1398 82.6291 90.1906 82.7519L91.8152 87.8653C91.8406 87.9834 91.9219 88.0904 92.0285 88.1313L105.453 88.1262C105.64 88.1262 105.798 87.983 105.798 87.7937C105.798 87.7272 94.1102 49.7832 94.1102 49.7832ZM133.002 65.2712L124.619 65.2763C124.619 65.2763 124.396 65.2098 124.396 64.9541L124.391 60.6944C124.391 60.4386 124.614 60.3721 124.614 60.3721H132.301C133.195 60.3721 135.002 60.8222 135.002 62.9035C135.002 64.9848 133.002 65.2712 133.002 65.2712ZM173.193 61.973H192.188V49.4287H167.766C165.481 49.4287 162.267 50.6153 160.424 51.9908C158.581 53.3662 155.916 56.5011 155.916 60.8222C155.916 65.1433 158.52 68.5032 158.52 68.5032C159.855 70.1702 163.217 73.6427 163.217 73.6427C163.293 73.7245 163.339 73.8315 163.339 73.9547C163.339 74.2151 163.13 74.4248 162.871 74.4248H144.06C141.77 74.4146 141.613 73.4995 141.613 73.3665C141.613 73.1312 141.897 72.9829 141.897 72.9829C142.755 72.5686 144.507 71.1928 144.507 71.1928C148.223 68.2782 148.671 64.2793 148.671 62.1367C148.671 59.9885 148.35 56.1891 144.537 52.8603C140.725 49.531 135.896 49.439 135.896 49.439H109.052V87.9051C109.052 88.0274 109.164 88.1246 109.286 88.1246H124.229V77.3347C124.229 77.1458 124.518 77.3347 124.518 77.3347L132.301 85.21C135.068 88.0274 139.643 88.1246 139.643 88.1246L169.071 88.1195C174.092 88.1195 176.885 85.3686 177.651 84.6014C178.413 83.8291 180.957 80.9503 180.957 76.1792C180.957 71.4131 178.794 68.9738 177.87 67.8541C177.047 66.8516 173.767 63.3536 173.082 62.6273C173.04 62.5933 173.007 62.5504 172.984 62.5018C172.961 62.4532 172.95 62.4001 172.95 62.3464C172.95 62.1772 173.046 62.0194 173.193 61.973ZM54.3797 88.1238C54.4813 88.1238 54.5523 88.0522 54.5828 87.9397C54.5828 87.9397 66.1438 49.6939 66.1438 49.6577C66.1438 49.5554 66.0828 49.4433 65.9863 49.4331H51.7344C51.6633 49.4331 51.6176 49.4893 51.6023 49.5661C51.6023 49.5712 48.6523 59.5121 48.6523 59.5172C48.632 59.599 48.5914 59.6502 48.5203 59.6502C48.4492 59.6502 48.3883 59.5786 48.3781 59.5172L45.2914 49.5609C45.2812 49.4941 45.2305 49.4331 45.1594 49.4331L29.4199 49.428C29.397 49.4343 29.376 49.4459 29.3583 49.4619C29.3407 49.4779 29.327 49.4978 29.3184 49.52L26.5512 59.5121C26.5359 59.599 26.4902 59.6502 26.4141 59.6502C26.3818 59.6496 26.3507 59.6374 26.3265 59.6158C26.3024 59.5943 26.2866 59.5648 26.282 59.5325L23.3473 49.5507C23.3437 49.5202 23.3304 49.4917 23.3093 49.4696C23.2882 49.4474 23.2606 49.4328 23.2305 49.428H8.03945C7.97964 49.4288 7.92257 49.4534 7.88071 49.4965C7.83886 49.5395 7.8156 49.5975 7.81602 49.6577C7.81602 49.6782 7.82109 49.7191 7.82109 49.7191L19.5547 87.9397C19.5852 88.0522 19.6563 88.1238 19.7578 88.1238L32.375 88.1289C32.4508 88.1187 32.5273 88.0318 32.5473 87.9397C32.5523 87.9397 36.9391 73.7182 36.9391 73.7182C36.9645 73.6313 37 73.5805 37.0711 73.5805C37.1473 73.5805 37.1883 73.6415 37.2082 73.7131L41.4883 88.0011C41.5007 88.0371 41.5241 88.0683 41.5551 88.0903C41.586 88.1124 41.623 88.1241 41.6609 88.1238H54.3797ZM43.4039 7.87026C41.1141 7.87026 37.9055 9.05646 36.0625 10.4323C34.2188 11.8077 31.5539 14.9426 31.5539 19.2637C31.5539 23.5848 34.1582 26.9447 34.1582 26.9447C35.4937 28.6117 38.8547 32.1094 38.8547 32.1094C38.9309 32.1912 38.9766 32.2986 38.9766 32.4162C38.9766 32.6771 38.7684 32.8919 38.5098 32.8919H7.8125V46.5661H44.709C49.7254 46.5661 52.5227 43.8148 53.2895 43.0429C54.0512 42.2757 56.5898 39.3966 56.5898 34.6254C56.5898 29.8593 54.432 27.3944 53.5078 26.2747C52.6852 25.2723 49.4055 21.7951 48.7199 21.0739C48.6788 21.0385 48.6458 20.9946 48.623 20.9452C48.6002 20.8957 48.5883 20.842 48.5879 20.7875C48.5879 20.6187 48.6844 20.4653 48.8316 20.4141H66.602V46.5661H80.2648V20.4806H96.8523V7.87026H43.4039ZM162.571 23.7131L154.188 23.7182C154.188 23.7182 153.965 23.6517 153.965 23.396L153.96 19.1363C153.96 18.8805 154.183 18.814 154.183 18.814H161.87C162.764 18.814 164.571 19.2641 164.571 21.3454C164.571 23.4267 162.571 23.7131 162.571 23.7131ZM173.629 32.8667C171.344 32.8565 171.182 31.9414 171.182 31.8084C171.182 31.5731 171.466 31.4248 171.466 31.4248C172.324 31.0105 174.076 29.6347 174.076 29.6347C177.793 26.7201 178.239 22.7212 178.239 20.5786C178.239 18.4304 177.919 14.631 174.107 11.3022C170.293 7.97294 165.465 7.87065 165.465 7.87065H138.621V46.3466C138.621 46.4693 138.733 46.5669 138.855 46.5669H153.797V35.7813C153.797 35.5869 154.087 35.7813 154.087 35.7813L161.87 43.6516C164.637 46.4689 169.212 46.5661 169.212 46.5661H192.186V32.8675L173.629 32.8667ZM116.827 30.4408H111.206C110.998 30.4408 110.866 30.2158 110.866 30.0009C110.866 29.9191 113.857 20.2135 113.857 20.2135C113.963 19.8503 113.993 19.8397 114.014 19.8397H114.019C114.039 19.8397 114.07 19.8503 114.177 20.2135C114.177 20.2135 117.167 29.9195 117.167 30.0009C117.167 30.2158 117.03 30.4408 116.827 30.4408ZM124.392 8.21136C124.365 8.11569 124.309 8.03103 124.231 7.96948C124.154 7.90793 124.059 7.87265 123.96 7.86868H103.321C103.118 7.87891 102.946 8.01701 102.89 8.20625C102.89 8.20625 91.4914 46.1503 91.4914 46.2219C91.4914 46.4111 91.6437 46.5645 91.8312 46.5645H105.474C105.586 46.5291 105.667 46.4213 105.692 46.3037L107.282 41.1851C107.307 41.123 107.35 41.0697 107.405 41.0316C107.46 40.9935 107.525 40.9722 107.591 40.9703H120.173C120.24 40.9749 120.305 40.9978 120.36 41.0365C120.416 41.0752 120.46 41.1283 120.488 41.1902L122.113 46.3037C122.138 46.4217 122.219 46.5287 122.325 46.5697L135.75 46.5645C135.938 46.5645 136.09 46.4213 136.09 46.227C136.09 46.1656 124.392 8.21136 124.392 8.21136Z"/>
</mask>
<path d="M86.5297 72.0024H80.9094C80.7113 72.0024 80.5691 71.7774 80.5691 71.5626C80.5691 71.4863 83.5598 61.7751 83.5598 61.7751C83.6664 61.412 83.6766 61.4014 83.7172 61.4014H83.7223C83.7676 61.4014 83.773 61.412 83.8793 61.7751C83.8793 61.7751 86.8699 71.4863 86.8699 71.5626C86.8699 71.7774 86.7172 72.0024 86.5297 72.0024ZM94.1102 49.7832C94.0822 49.6873 94.026 49.6021 93.9489 49.5391C93.8718 49.476 93.7775 49.4381 93.6785 49.4303H73.0395C72.9412 49.4382 72.8476 49.4756 72.7707 49.5376C72.6937 49.5995 72.637 49.6833 72.6078 49.7781C72.6078 49.7781 61.1992 87.7119 61.1992 87.7839C61.1992 87.9727 61.3465 88.1262 61.5395 88.1262H75.182C75.236 88.1035 75.2837 88.0679 75.3209 88.0225C75.358 87.977 75.3836 87.923 75.3953 87.8653L76.9844 82.7519C77.0088 82.6885 77.0512 82.6339 77.1063 82.5947C77.1614 82.5555 77.2267 82.5335 77.2941 82.5315L89.8809 82.5217C90.0176 82.5319 90.1398 82.6291 90.1906 82.7519L91.8152 87.8653C91.8406 87.9834 91.9219 88.0904 92.0285 88.1313L105.453 88.1262C105.64 88.1262 105.798 87.983 105.798 87.7937C105.798 87.7272 94.1102 49.7832 94.1102 49.7832ZM133.002 65.2712L124.619 65.2763C124.619 65.2763 124.396 65.2098 124.396 64.9541L124.391 60.6944C124.391 60.4386 124.614 60.3721 124.614 60.3721H132.301C133.195 60.3721 135.002 60.8222 135.002 62.9035C135.002 64.9848 133.002 65.2712 133.002 65.2712ZM173.193 61.973H192.188V49.4287H167.766C165.481 49.4287 162.267 50.6153 160.424 51.9908C158.581 53.3662 155.916 56.5011 155.916 60.8222C155.916 65.1433 158.52 68.5032 158.52 68.5032C159.855 70.1702 163.217 73.6427 163.217 73.6427C163.293 73.7245 163.339 73.8315 163.339 73.9547C163.339 74.2151 163.13 74.4248 162.871 74.4248H144.06C141.77 74.4146 141.613 73.4995 141.613 73.3665C141.613 73.1312 141.897 72.9829 141.897 72.9829C142.755 72.5686 144.507 71.1928 144.507 71.1928C148.223 68.2782 148.671 64.2793 148.671 62.1367C148.671 59.9885 148.35 56.1891 144.537 52.8603C140.725 49.531 135.896 49.439 135.896 49.439H109.052V87.9051C109.052 88.0274 109.164 88.1246 109.286 88.1246H124.229V77.3347C124.229 77.1458 124.518 77.3347 124.518 77.3347L132.301 85.21C135.068 88.0274 139.643 88.1246 139.643 88.1246L169.071 88.1195C174.092 88.1195 176.885 85.3686 177.651 84.6014C178.413 83.8291 180.957 80.9503 180.957 76.1792C180.957 71.4131 178.794 68.9738 177.87 67.8541C177.047 66.8516 173.767 63.3536 173.082 62.6273C173.04 62.5933 173.007 62.5504 172.984 62.5018C172.961 62.4532 172.95 62.4001 172.95 62.3464C172.95 62.1772 173.046 62.0194 173.193 61.973ZM54.3797 88.1238C54.4813 88.1238 54.5523 88.0522 54.5828 87.9397C54.5828 87.9397 66.1438 49.6939 66.1438 49.6577C66.1438 49.5554 66.0828 49.4433 65.9863 49.4331H51.7344C51.6633 49.4331 51.6176 49.4893 51.6023 49.5661C51.6023 49.5712 48.6523 59.5121 48.6523 59.5172C48.632 59.599 48.5914 59.6502 48.5203 59.6502C48.4492 59.6502 48.3883 59.5786 48.3781 59.5172L45.2914 49.5609C45.2812 49.4941 45.2305 49.4331 45.1594 49.4331L29.4199 49.428C29.397 49.4343 29.376 49.4459 29.3583 49.4619C29.3407 49.4779 29.327 49.4978 29.3184 49.52L26.5512 59.5121C26.5359 59.599 26.4902 59.6502 26.4141 59.6502C26.3818 59.6496 26.3507 59.6374 26.3265 59.6158C26.3024 59.5943 26.2866 59.5648 26.282 59.5325L23.3473 49.5507C23.3437 49.5202 23.3304 49.4917 23.3093 49.4696C23.2882 49.4474 23.2606 49.4328 23.2305 49.428H8.03945C7.97964 49.4288 7.92257 49.4534 7.88071 49.4965C7.83886 49.5395 7.8156 49.5975 7.81602 49.6577C7.81602 49.6782 7.82109 49.7191 7.82109 49.7191L19.5547 87.9397C19.5852 88.0522 19.6563 88.1238 19.7578 88.1238L32.375 88.1289C32.4508 88.1187 32.5273 88.0318 32.5473 87.9397C32.5523 87.9397 36.9391 73.7182 36.9391 73.7182C36.9645 73.6313 37 73.5805 37.0711 73.5805C37.1473 73.5805 37.1883 73.6415 37.2082 73.7131L41.4883 88.0011C41.5007 88.0371 41.5241 88.0683 41.5551 88.0903C41.586 88.1124 41.623 88.1241 41.6609 88.1238H54.3797ZM43.4039 7.87026C41.1141 7.87026 37.9055 9.05646 36.0625 10.4323C34.2188 11.8077 31.5539 14.9426 31.5539 19.2637C31.5539 23.5848 34.1582 26.9447 34.1582 26.9447C35.4937 28.6117 38.8547 32.1094 38.8547 32.1094C38.9309 32.1912 38.9766 32.2986 38.9766 32.4162C38.9766 32.6771 38.7684 32.8919 38.5098 32.8919H7.8125V46.5661H44.709C49.7254 46.5661 52.5227 43.8148 53.2895 43.0429C54.0512 42.2757 56.5898 39.3966 56.5898 34.6254C56.5898 29.8593 54.432 27.3944 53.5078 26.2747C52.6852 25.2723 49.4055 21.7951 48.7199 21.0739C48.6788 21.0385 48.6458 20.9946 48.623 20.9452C48.6002 20.8957 48.5883 20.842 48.5879 20.7875C48.5879 20.6187 48.6844 20.4653 48.8316 20.4141H66.602V46.5661H80.2648V20.4806H96.8523V7.87026H43.4039ZM162.571 23.7131L154.188 23.7182C154.188 23.7182 153.965 23.6517 153.965 23.396L153.96 19.1363C153.96 18.8805 154.183 18.814 154.183 18.814H161.87C162.764 18.814 164.571 19.2641 164.571 21.3454C164.571 23.4267 162.571 23.7131 162.571 23.7131ZM173.629 32.8667C171.344 32.8565 171.182 31.9414 171.182 31.8084C171.182 31.5731 171.466 31.4248 171.466 31.4248C172.324 31.0105 174.076 29.6347 174.076 29.6347C177.793 26.7201 178.239 22.7212 178.239 20.5786C178.239 18.4304 177.919 14.631 174.107 11.3022C170.293 7.97294 165.465 7.87065 165.465 7.87065H138.621V46.3466C138.621 46.4693 138.733 46.5669 138.855 46.5669H153.797V35.7813C153.797 35.5869 154.087 35.7813 154.087 35.7813L161.87 43.6516C164.637 46.4689 169.212 46.5661 169.212 46.5661H192.186V32.8675L173.629 32.8667ZM116.827 30.4408H111.206C110.998 30.4408 110.866 30.2158 110.866 30.0009C110.866 29.9191 113.857 20.2135 113.857 20.2135C113.963 19.8503 113.993 19.8397 114.014 19.8397H114.019C114.039 19.8397 114.07 19.8503 114.177 20.2135C114.177 20.2135 117.167 29.9195 117.167 30.0009C117.167 30.2158 117.03 30.4408 116.827 30.4408ZM124.392 8.21136C124.365 8.11569 124.309 8.03103 124.231 7.96948C124.154 7.90793 124.059 7.87265 123.96 7.86868H103.321C103.118 7.87891 102.946 8.01701 102.89 8.20625C102.89 8.20625 91.4914 46.1503 91.4914 46.2219C91.4914 46.4111 91.6437 46.5645 91.8312 46.5645H105.474C105.586 46.5291 105.667 46.4213 105.692 46.3037L107.282 41.1851C107.307 41.123 107.35 41.0697 107.405 41.0316C107.46 40.9935 107.525 40.9722 107.591 40.9703H120.173C120.24 40.9749 120.305 40.9978 120.36 41.0365C120.416 41.0752 120.46 41.1283 120.488 41.1902L122.113 46.3037C122.138 46.4217 122.219 46.5287 122.325 46.5697L135.75 46.5645C135.938 46.5645 136.09 46.4213 136.09 46.227C136.09 46.1656 124.392 8.21136 124.392 8.21136Z" fill="black" stroke="#FFE919" stroke-width="4" mask="url(#path-1-inside-1_12_1322)"/>
</svg>
